<?xml version="1.0" encoding="iso-8859-1"?>
<!-- Uploaded to: SVG Repo, www.svgrepo.com, Generator: SVG Repo Mixer Tools -->
<svg fill="#000000" height="800px" width="800px" version="1.1" id="Layer_1" xmlns="http://www.w3.org/2000/svg" xmlns:xlink="http://www.w3.org/1999/xlink" 
	 viewBox="0 0 512 512" xml:space="preserve">
<g>
	<g>
		<path d="M273.075,6.528C268.22,2.176,262.11,0,256,0s-12.22,2.176-17.075,6.528c-5.052,4.523-123.708,112.35-123.725,249.446
			c0,0.017,0,0.034,0,0.051c0.017,137.096,118.665,244.924,123.725,249.446C243.78,509.824,249.89,512,256,512
			s12.22-2.176,17.075-6.528c5.052-4.523,123.708-112.35,123.716-249.446c0.009-0.017,0.009-0.034,0.009-0.051
			C396.783,118.878,278.127,11.051,273.075,6.528z M332.348,177.092l-52.702-60.604l62.251,41.506L332.348,177.092z M367.036,256
			l-28.902,33.237L321.51,256l16.623-33.237L367.036,256z M306.099,282.411l13.867,27.725l-22.076,25.387
			C301.44,319.872,304.538,301.986,306.099,282.411z M297.89,176.478l22.076,25.387l-13.867,27.725
			C304.538,210.022,301.449,192.137,297.89,176.478z M330.197,119.415l-37.845-25.225L276.42,46.404
			C291.328,62.754,311.893,88.021,330.197,119.415z M256,66.074l12.553,37.649l-2.893-3.319c-4.872-5.598-14.447-5.598-19.328,0
			l-2.893,3.328L256,66.074z M235.58,46.404l-15.932,47.787l-37.845,25.225C200.107,88.021,220.672,62.754,235.58,46.404z
			 M232.354,116.489l-52.702,60.604l-9.549-19.098L232.354,116.489z M205.901,229.589l-13.867-27.725l22.076-25.387
			C210.56,192.128,207.462,210.014,205.901,229.589z M214.11,335.522l-22.076-25.387l13.867-27.725
			C207.462,301.978,210.551,319.863,214.11,335.522z M190.49,256l-16.623,33.237L144.964,256l28.902-33.237L190.49,256z
			 M153.404,181.828l8.081,16.162l-17.007,19.558C146.628,205.278,149.623,193.348,153.404,181.828z M153.404,330.18
			c-3.78-11.529-6.775-23.458-8.926-35.721l17.007,19.558L153.404,330.18z M179.652,334.908l52.702,60.604l-62.251-41.506
			L179.652,334.908z M181.803,392.585l37.845,25.225l15.932,47.787C220.672,449.246,200.107,423.979,181.803,392.585z M256,445.926
			l-12.553-37.649l2.893,3.319c2.441,2.799,5.965,4.403,9.66,4.403s7.228-1.604,9.66-4.403l2.893-3.328L256,445.926z
			 M256.256,383.394l-0.256,0.29l-0.256-0.299C254.327,380.177,230.4,324.625,230.4,256s23.927-124.177,25.344-127.394l0.256-0.29
			l0.256,0.299C257.673,131.823,281.6,187.375,281.6,256S257.673,380.177,256.256,383.394z M276.42,465.604l15.932-47.787
			l37.845-25.225C311.893,423.979,291.328,449.246,276.42,465.604z M279.646,395.511l52.702-60.604l9.549,19.098L279.646,395.511z
			 M358.596,330.172l-8.081-16.162l17.007-19.558C365.372,306.722,362.376,318.652,358.596,330.172z M350.524,197.982l8.081-16.162
			c3.78,11.529,6.775,23.45,8.926,35.712L350.524,197.982z"/>
	</g>
</g>
</svg>